<?xml version="1.0" encoding="utf-8"?>
<!-- Generator: Adobe Illustrator 25.2.3, SVG Export Plug-In . SVG Version: 6.00 Build 0)  -->
<svg version="1.1" id="Layer_1" xmlns="http://www.w3.org/2000/svg" xmlns:xlink="http://www.w3.org/1999/xlink" x="0px" y="0px"
	 viewBox="0 0 178 50" style="enable-background:new 0 0 178 50;" xml:space="preserve">
<style type="text/css">
	.st0{fill:#282256;}
	.st1{fill:url(#SVGID_1_);}
	.st2{fill:url(#SVGID_2_);}
	.st3{fill:url(#SVGID_3_);}
	.st4{fill:url(#SVGID_4_);}
	.st5{fill:url(#SVGID_5_);}
	.st6{fill:url(#SVGID_6_);}
	.st7{opacity:0.27;fill:url(#SVGID_7_);enable-background:new    ;}
	.st8{opacity:0.27;fill:url(#SVGID_8_);enable-background:new    ;}
</style>
<g>
	<path class="st0" d="M15.3,36.5c-0.5,0-0.8-0.4-0.8-0.8V24.9c0-2.8-1.1-4.7-3.7-4.7c-2.5,0-3.9,2.3-3.9,4.8v10.7
		c0,0.5-0.4,0.8-0.8,0.8H1.3c-0.5,0-0.8-0.4-0.8-0.8v-20c0-0.5,0.4-0.8,0.8-0.8h4c0.4,0,0.7,0.3,0.8,0.7l0.3,1.8
		c1.4-2.4,3.9-2.9,5.7-2.9c2.4,0,4.9,0.9,6.3,4c1.9-2.9,4-4.1,7.2-4.1c4.5,0,8.6,2.3,8.6,10.3v11c0,0.5-0.4,0.8-0.8,0.8h-4.7
		c-0.5,0-0.8-0.4-0.8-0.8V24.8c0-2.7-0.7-4.5-3.3-4.5c-2.5,0-4,2.1-4,4.6v10.8c0,0.5-0.4,0.8-0.8,0.8H15.3z"/>
	<path class="st0" d="M36.3,25.7c0-6.5,4.6-11.3,11.8-11.3S60,19.2,60,25.7S55.5,37,48.1,37C40.8,37,36.3,32.3,36.3,25.7z
		 M53.6,25.7c0-2.7-1.7-5.7-5.5-5.7s-5.4,3-5.4,5.7s1.6,5.7,5.4,5.7C52,31.4,53.6,28.6,53.6,25.7z"/>
	<path class="st0" d="M70.7,9.9V15h4.7c0.5,0,0.8,0.4,0.8,0.8v3.6c0,0.5-0.4,0.8-0.8,0.8h-4.7v8.2c0,2.3,1.3,2.9,2.5,2.9
		c0.5,0,1.2-0.1,1.8-0.2c0.4-0.1,0.9,0.1,1,0.6l1,3.7c0.1,0.4-0.1,0.9-0.5,1c-1.3,0.4-2.4,0.6-3.8,0.7c-4.7,0.2-8.2-1.8-8.2-8.6
		v-8.2h-3c-0.5,0-0.8-0.4-0.8-0.8v-3.6c0-0.5,0.4-0.8,0.8-0.8h3v-4.6c0-0.4,0.3-0.8,0.7-0.8L69.8,9C70.2,9,70.7,9.4,70.7,9.9z"/>
	<path class="st0" d="M77.4,25.7c0-6.5,4.6-11.3,11.8-11.3c7.2,0,11.9,4.8,11.9,11.3S96.6,37,89.2,37C81.9,37,77.4,32.3,77.4,25.7z
		 M94.7,25.7c0-2.7-1.7-5.7-5.5-5.7s-5.4,3-5.4,5.7s1.6,5.7,5.4,5.7C93.1,31.4,94.7,28.6,94.7,25.7z"/>
	<path class="st0" d="M109.4,15.6l0.3,1.7c1.4-2,3.4-2.9,5.8-2.9c1.8,0,3.4,0.5,4.8,1.5c0.3,0.2,0.4,0.7,0.2,1l-1.9,3.6
		c-0.2,0.4-0.7,0.5-1.1,0.3c-0.8-0.4-1.7-0.7-2.8-0.7c-2.7,0-5,1.8-5,5v10.4c0,0.5-0.4,0.8-0.8,0.8h-4.7c-0.5,0-0.8-0.4-0.8-0.8v-20
		c0-0.5,0.4-0.8,0.8-0.8h4.4C109,14.9,109.4,15.2,109.4,15.6z"/>
</g>
<linearGradient id="SVGID_1_" gradientUnits="userSpaceOnUse" x1="-2300.4592" y1="49.6002" x2="-2247.9829" y2="12.9696" gradientTransform="matrix(-1 0 0 -1 -2124.0566 50)">
	<stop  offset="0" style="stop-color:#0200CA"/>
	<stop  offset="1" style="stop-color:#D000F5"/>
</linearGradient>
<path class="st1" d="M175.2,0.4h-18.9c-0.7,0-1.4,0.3-1.9,0.9l-6,8L160.6,26L177,4C178.2,2.6,177.1,0.4,175.2,0.4z"/>
<linearGradient id="SVGID_2_" gradientUnits="userSpaceOnUse" x1="-2304.9927" y1="43.2268" x2="-2252.5164" y2="6.5963" gradientTransform="matrix(-1 0 0 -1 -2124.0566 50)">
	<stop  offset="0" style="stop-color:#0200CA"/>
	<stop  offset="1" style="stop-color:#D000F5"/>
</linearGradient>
<path class="st2" d="M126.8,38.3c-1.1,1.5,0,3.7,1.9,3.7h18.9c0.4,0,0.7-0.1,1-0.2l-12.1-16.5L126.8,38.3z"/>
<linearGradient id="SVGID_3_" gradientUnits="userSpaceOnUse" x1="-2304.4167" y1="14.5978" x2="-2249.1592" y2="42.4684" gradientTransform="matrix(-1 0 0 -1 -2124.0566 50)">
	<stop  offset="0" style="stop-color:#00F5ED"/>
	<stop  offset="0.9995" style="stop-color:#0034C2"/>
</linearGradient>
<path class="st3" d="M146.5,6.7c-0.6-0.8-1.5-1.3-2.5-1.3h-16c-2.5,0-3.9,2.8-2.5,4.9l11,15l11.9-16L146.5,6.7z"/>
<linearGradient id="SVGID_4_" gradientUnits="userSpaceOnUse" x1="-2298.7883" y1="3.8927" x2="-2243.5305" y2="31.7633" gradientTransform="matrix(-1 0 0 -1 -2124.0566 50)">
	<stop  offset="0" style="stop-color:#00F5ED"/>
	<stop  offset="0.9995" style="stop-color:#0034C2"/>
</linearGradient>
<path class="st4" d="M148.5,41.6l4.5,6.1c0.6,0.8,1.5,1.3,2.5,1.3h16c2.5,0,3.9-2.8,2.5-4.9L160.6,26l-11.1,15
	C149.1,41.2,148.8,41.5,148.5,41.6z"/>
<linearGradient id="SVGID_5_" gradientUnits="userSpaceOnUse" x1="-2303.1125" y1="45.777" x2="-2250.6362" y2="9.1465" gradientTransform="matrix(-1 0 0 -1 -2124.0566 50)">
	<stop  offset="0" style="stop-color:#0200CA"/>
	<stop  offset="1" style="stop-color:#D000F5"/>
</linearGradient>
<path class="st5" d="M136.5,25.3l12.1,16.5c0.3-0.2,0.6-0.4,0.8-0.7L160.6,26L148.4,9.3L136.5,25.3z"/>
<linearGradient id="SVGID_6_" gradientUnits="userSpaceOnUse" x1="-2301.9167" y1="9.6414" x2="-2246.6592" y2="37.512" gradientTransform="matrix(-1 0 0 -1 -2124.0566 50)">
	<stop  offset="0" style="stop-color:#2C01D2"/>
	<stop  offset="0.9995" style="stop-color:#0034C2"/>
</linearGradient>
<path class="st6" d="M136.5,25.3l12.1,16.5c0.3-0.2,0.6-0.4,0.8-0.7L160.6,26L148.4,9.3L136.5,25.3z"/>
<linearGradient id="SVGID_7_" gradientUnits="userSpaceOnUse" x1="-2272.7422" y1="16.4086" x2="-2259.2415" y2="16.4086" gradientTransform="matrix(-1 0 0 -1 -2124.0566 50)">
	<stop  offset="0" style="stop-color:#000000"/>
	<stop  offset="1" style="stop-color:#000000;stop-opacity:0.2"/>
</linearGradient>
<polygon class="st7" points="148.6,41.9 135.1,27.1 136.5,25.3 "/>
<linearGradient id="SVGID_8_" gradientUnits="userSpaceOnUse" x1="-2272.2485" y1="9.7371" x2="-2285.6604" y2="22.9084" gradientTransform="matrix(-1 0 0 -1 -2124.0566 50)">
	<stop  offset="0" style="stop-color:#000000"/>
	<stop  offset="1" style="stop-color:#000000;stop-opacity:0.2"/>
</linearGradient>
<polygon class="st8" points="149.2,41.3 160.6,26 162.3,28.2 "/>
</svg>
